<svg width="75" height="147" viewBox="0 0 75 147" fill="none" xmlns="http://www.w3.org/2000/svg">
<path d="M4.40807 7.00515C2.8041 8.60912 0.209854 8.60912 -1.39411 7.00515C-2.99808 5.40119 -2.99808 2.80694 -1.39411 1.20297C0.209854 -0.400991 2.8041 -0.400991 4.40807 1.20297C5.99809 2.79299 5.99809 5.40119 4.40807 7.00515ZM21.7588 18.5397C20.1548 16.9358 17.5606 16.9358 15.9566 18.5397C14.3527 20.1437 14.3527 22.738 15.9566 24.3419C17.5606 25.9459 20.1548 25.9459 21.7588 24.3419C23.3488 22.7519 23.3488 20.1437 21.7588 18.5397ZM39.0956 35.8905C37.4916 34.2865 34.8974 34.2865 33.2934 35.8905C31.6894 37.4944 31.6894 40.0887 33.2934 41.6926C34.8974 43.2966 37.4916 43.2966 39.0956 41.6926C40.6995 40.0887 40.6995 37.4944 39.0956 35.8905ZM56.4463 53.2412C54.8423 51.6372 52.2481 51.6372 50.6441 53.2412C49.0402 54.8451 49.0402 57.4394 50.6441 59.0434C52.2481 60.6473 54.8423 60.6473 56.4463 59.0434C58.0503 57.4394 58.0503 54.8451 56.4463 53.2412ZM73.797 70.5919C72.1931 68.9879 69.5988 68.9879 67.9948 70.5919C66.3909 72.1959 66.3909 74.7901 67.9948 76.3941C69.5988 77.9981 72.1931 77.9981 73.797 76.3941C75.401 74.7901 75.401 72.1959 73.797 70.5919ZM-12.9427 18.5397C-14.5466 16.9358 -17.1409 16.9358 -18.7448 18.5397C-20.3488 20.1437 -20.3488 22.738 -18.7448 24.3419C-17.1409 25.9459 -14.5466 25.9459 -12.9427 24.3419C-11.3387 22.7519 -11.3387 20.1437 -12.9427 18.5397ZM4.40807 35.8905C2.8041 34.2865 0.209854 34.2865 -1.39411 35.8905C-2.99808 37.4944 -2.99808 40.0887 -1.39411 41.6926C0.209854 43.2966 2.8041 43.2966 4.40807 41.6926C5.99809 40.0887 5.99809 37.4944 4.40807 35.8905ZM21.7588 53.2412C20.1548 51.6372 17.5606 51.6372 15.9566 53.2412C14.3527 54.8451 14.3527 57.4394 15.9566 59.0434C17.5606 60.6473 20.1548 60.6473 21.7588 59.0434C23.3488 57.4394 23.3488 54.8451 21.7588 53.2412ZM39.0956 70.5919C37.4916 68.9879 34.8974 68.9879 33.2934 70.5919C31.6894 72.1959 31.6894 74.7901 33.2934 76.3941C34.8974 77.9981 37.4916 77.9981 39.0956 76.3941C40.6995 74.7901 40.6995 72.1959 39.0956 70.5919ZM56.4463 87.9426C54.8423 86.3386 52.2481 86.3386 50.6441 87.9426C49.0402 89.5466 49.0402 92.1409 50.6441 93.7448C52.2481 95.3488 54.8423 95.3488 56.4463 93.7448C58.0503 92.1409 58.0503 89.5466 56.4463 87.9426ZM-30.2934 35.8905C-31.8974 34.2865 -34.4916 34.2865 -36.0956 35.8905C-37.6995 37.4944 -37.6995 40.0887 -36.0956 41.6926C-34.4916 43.2966 -31.8974 43.2966 -30.2934 41.6926C-28.6894 40.0887 -28.6894 37.4944 -30.2934 35.8905ZM-12.9427 53.2412C-14.5466 51.6372 -17.1409 51.6372 -18.7448 53.2412C-20.3488 54.8451 -20.3488 57.4394 -18.7448 59.0434C-17.1409 60.6473 -14.5466 60.6473 -12.9427 59.0434C-11.3387 57.4394 -11.3387 54.8451 -12.9427 53.2412ZM4.40807 70.5919C2.8041 68.9879 0.209854 68.9879 -1.39411 70.5919C-2.99808 72.1959 -2.99808 74.7901 -1.39411 76.3941C0.209854 77.9981 2.8041 77.9981 4.40807 76.3941C5.99809 74.7901 5.99809 72.1959 4.40807 70.5919ZM21.7588 87.9426C20.1548 86.3386 17.5606 86.3386 15.9566 87.9426C14.3527 89.5466 14.3527 92.1409 15.9566 93.7448C17.5606 95.3488 20.1548 95.3488 21.7588 93.7448C23.3488 92.1409 23.3488 89.5466 21.7588 87.9426ZM39.0956 105.293C37.4916 103.689 34.8974 103.689 33.2934 105.293C31.6894 106.897 31.6894 109.492 33.2934 111.096C34.8974 112.7 37.4916 112.7 39.0956 111.096C40.6995 109.492 40.6995 106.897 39.0956 105.293ZM-47.6441 53.2412C-49.2481 51.6372 -51.8423 51.6372 -53.4463 53.2412C-55.0503 54.8451 -55.0503 57.4394 -53.4463 59.0434C-51.8423 60.6473 -49.2481 60.6473 -47.6441 59.0434C-46.0402 57.4394 -46.0402 54.8451 -47.6441 53.2412ZM-30.2934 70.5919C-31.8974 68.9879 -34.4916 68.9879 -36.0956 70.5919C-37.6995 72.1959 -37.6995 74.7901 -36.0956 76.3941C-34.4916 77.9981 -31.8974 77.9981 -30.2934 76.3941C-28.6894 74.7901 -28.6894 72.1959 -30.2934 70.5919ZM-12.9427 87.9426C-14.5466 86.3386 -17.1409 86.3386 -18.7448 87.9426C-20.3488 89.5466 -20.3488 92.1409 -18.7448 93.7448C-17.1409 95.3488 -14.5466 95.3488 -12.9427 93.7448C-11.3387 92.1409 -11.3387 89.5466 -12.9427 87.9426ZM4.40807 105.293C2.8041 103.689 0.209854 103.689 -1.39411 105.293C-2.99808 106.897 -2.99808 109.492 -1.39411 111.096C0.209854 112.7 2.8041 112.7 4.40807 111.096C5.99809 109.492 5.99809 106.897 4.40807 105.293ZM21.7588 122.644C20.1548 121.04 17.5606 121.04 15.9566 122.644C14.3527 124.248 14.3527 126.842 15.9566 128.446C17.5606 130.05 20.1548 130.05 21.7588 128.446C23.3488 126.842 23.3488 124.248 21.7588 122.644ZM-64.9948 70.5919C-66.5988 68.9879 -69.1931 68.9879 -70.797 70.5919C-72.401 72.1959 -72.401 74.7901 -70.797 76.3941C-69.1931 77.9981 -66.5988 77.9981 -64.9948 76.3941C-63.3909 74.7901 -63.3909 72.1959 -64.9948 70.5919ZM-47.6441 87.9426C-49.2481 86.3386 -51.8423 86.3386 -53.4463 87.9426C-55.0503 89.5466 -55.0503 92.1409 -53.4463 93.7448C-51.8423 95.3488 -49.2481 95.3488 -47.6441 93.7448C-46.0402 92.1409 -46.0402 89.5466 -47.6441 87.9426ZM-30.2934 105.293C-31.8974 103.689 -34.4916 103.689 -36.0956 105.293C-37.6995 106.897 -37.6995 109.492 -36.0956 111.096C-34.4916 112.7 -31.8974 112.7 -30.2934 111.096C-28.6894 109.492 -28.6894 106.897 -30.2934 105.293ZM-12.9427 122.644C-14.5466 121.04 -17.1409 121.04 -18.7448 122.644C-20.3488 124.248 -20.3488 126.842 -18.7448 128.446C-17.1409 130.05 -14.5466 130.05 -12.9427 128.446C-11.3387 126.842 -11.3387 124.248 -12.9427 122.644ZM4.40807 139.995C2.8041 138.391 0.209854 138.391 -1.39411 139.995C-2.99808 141.599 -2.99808 144.193 -1.39411 145.797C0.209854 147.401 2.8041 147.401 4.40807 145.797C6.01203 144.193 5.99809 141.599 4.40807 139.995Z" fill="#4E4376" fill-opacity="0.5"/>
</svg>
