<svg width="41" height="39" viewBox="0 0 41 39" fill="none" xmlns="http://www.w3.org/2000/svg">
<path d="M40.4542 18.1373V30.4164C40.5743 31.4533 40.4585 32.5039 40.1153 33.4897C39.7721 34.4755 39.2105 35.371 38.4724 36.1091C37.7343 36.8472 36.8389 37.4088 35.8531 37.752C34.8672 38.0952 33.8166 38.211 32.7797 38.0909H8.22147C7.18458 38.211 6.13394 38.0952 5.14814 37.752C4.16233 37.4088 3.26689 36.8472 2.52879 36.1091C1.79069 35.371 1.22904 34.4755 0.885856 33.4897C0.542672 32.5039 0.426838 31.4533 0.547018 30.4164V9.9512C0.426838 8.91431 0.542672 7.86367 0.885856 6.87786C1.22904 5.89206 1.79069 4.99662 2.52879 4.25852C3.26689 3.52042 4.16233 2.95877 5.14814 2.61559C6.13394 2.2724 7.18458 2.15657 8.22147 2.27675H24.5936C25.0007 2.27675 25.3911 2.43846 25.679 2.72631C25.9668 3.01415 26.1285 3.40456 26.1285 3.81164C26.1285 4.21872 25.9668 4.60912 25.679 4.89697C25.3911 5.18482 25.0007 5.34653 24.5936 5.34653H8.22147C4.99411 5.34653 3.6168 6.72384 3.6168 9.9512V28.8815L8.81496 23.6834C9.20136 23.2999 9.72364 23.0848 10.268 23.0848C10.8123 23.0848 11.3346 23.2999 11.721 23.6834L13.6447 25.6071C13.836 25.7946 14.0932 25.8996 14.361 25.8996C14.6289 25.8996 14.886 25.7946 15.0773 25.6071L25.1871 15.4973C25.5735 15.1139 26.0958 14.8987 26.6402 14.8987C27.1845 14.8987 27.7068 15.1139 28.0932 15.4973L37.3844 24.7885V18.1373C37.3844 17.7302 37.5461 17.3398 37.8339 17.052C38.1218 16.7641 38.5122 16.6024 38.9193 16.6024C39.3264 16.6024 39.7168 16.7641 40.0046 17.052C40.2925 17.3398 40.4542 17.7302 40.4542 18.1373ZM12.3002 11.4861C11.6207 11.488 10.9698 11.7595 10.4903 12.2409C10.0109 12.7224 9.74211 13.3745 9.74306 14.054C9.74401 14.7334 10.0146 15.3847 10.4954 15.8649C10.9762 16.345 11.6279 16.6147 12.3073 16.6147C12.9868 16.6147 13.6385 16.345 14.1193 15.8649C14.6001 15.3847 14.8707 14.7334 14.8716 14.054C14.8726 13.3745 14.6038 12.7224 14.1244 12.2409C13.6449 11.7595 12.994 11.488 12.3145 11.4861H12.3002ZM33.8644 5.91955L34.3146 5.47137V9.9512C34.3146 10.3583 34.4763 10.7487 34.7642 11.0365C35.052 11.3244 35.4424 11.4861 35.8495 11.4861C36.2566 11.4861 36.647 11.3244 36.9348 11.0365C37.2227 10.7487 37.3844 10.3583 37.3844 9.9512V5.47137L37.8346 5.91955C38.1256 6.19068 38.5104 6.33828 38.9081 6.33126C39.3057 6.32425 39.6851 6.16316 39.9663 5.88194C40.2475 5.60072 40.4086 5.22133 40.4156 4.82369C40.4227 4.42605 40.2751 4.04121 40.0039 3.75024L36.9342 0.680462C36.6461 0.393526 36.2561 0.232422 35.8495 0.232422C35.4429 0.232422 35.0529 0.393526 34.7648 0.680462L31.6951 3.75024C31.4239 4.04121 31.2763 4.42605 31.2834 4.82369C31.2904 5.22133 31.4515 5.60072 31.7327 5.88194C32.0139 6.16316 32.3933 6.32425 32.7909 6.33126C33.1886 6.33828 33.5734 6.19068 33.8644 5.91955Z" fill="#FB607F"/>
</svg>
