<svg width="423" height="237" viewBox="0 0 423 237" fill="none" xmlns="http://www.w3.org/2000/svg">
<rect x="0.4375" width="422.562" height="236.307" rx="10" fill="#FD8BA2"/>
<rect x="18.4883" y="109.129" width="102.564" height="110.769" rx="10" fill="white"/>
<rect x="18.4883" y="17.2305" width="150.974" height="13.1282" rx="6.56408" fill="white"/>
<rect x="18.4883" y="41.8438" width="150.974" height="13.1282" rx="6.56408" fill="white"/>
<rect x="18.4883" y="66.4609" width="150.974" height="13.1282" rx="6.56408" fill="white"/>
<rect x="140.745" y="117.332" width="263.384" height="13.1282" rx="6.56408" fill="white"/>
<rect x="140.745" y="140.309" width="263.384" height="79.5894" rx="10" fill="white"/>
<path d="M69.3596 164.925C72.9095 164.925 76.3797 163.872 79.3313 161.9C82.283 159.928 84.5835 157.124 85.942 153.845C87.3005 150.565 87.6559 146.956 86.9634 143.474C86.2708 139.993 84.5614 136.795 82.0512 134.284C79.541 131.774 76.3429 130.065 72.8612 129.372C69.3795 128.68 65.7706 129.035 62.4909 130.394C59.2112 131.752 56.408 134.053 54.4358 137.004C52.4636 139.956 51.4109 143.426 51.4109 146.976C51.4109 151.736 53.3019 156.302 56.668 159.668C60.034 163.034 64.5993 164.925 69.3596 164.925ZM69.3596 170.053C58.2346 170.053 36.0264 176.925 36.0264 190.566V200.822H102.693V190.566C102.693 176.925 80.4845 170.053 69.3596 170.053Z" fill="#FB607F"/>
<g clip-path="url(#clip0_786_80317)">
<path d="M374.221 77.5246C390.685 77.5246 404.038 64.1709 404.038 47.7076C404.038 31.2443 390.685 17.8906 374.221 17.8906C357.758 17.8906 344.404 31.2443 344.404 47.7076C344.404 64.1709 357.758 77.5246 374.221 77.5246ZM372.091 30.6694C372.091 29.4979 373.05 28.5395 374.221 28.5395C375.393 28.5395 376.351 29.4979 376.351 30.6694V46.6853L386.201 54.5655C387.117 55.3003 387.266 56.642 386.531 57.5579C386.116 58.0796 385.499 58.3565 384.87 58.3565C384.402 58.3565 383.933 58.2073 383.539 57.8879L372.89 49.3689C372.39 48.9642 372.092 48.3573 372.092 47.7076V30.6694H372.091Z" fill="white"/>
</g>
<defs>
<clipPath id="clip0_786_80317">
<rect width="59.634" height="59.634" fill="white" transform="translate(344.404 17.8906)"/>
</clipPath>
</defs>
</svg>
