<svg width="100" height="100" viewBox="0 0 100 100" fill="none" xmlns="http://www.w3.org/2000/svg">
<rect width="100" height="100" rx="10" fill="#FB607F"/>
<g clip-path="url(#clip0_181_38831)">
<path d="M45.5759 39.726C44.8561 39.726 44.0694 39.9845 43.5263 40.5972C42.8151 41.3996 42.5921 43.7973 42.6185 45.0074C43.8194 45.0364 46.1153 45.0046 47.0454 44.0797C48.018 43.1125 48.2841 41.4224 47.2499 40.3939C46.7998 39.9463 46.1989 39.726 45.5759 39.726Z" fill="white"/>
<path d="M36.4097 39.726C37.1295 39.726 37.9163 39.9845 38.4593 40.5972C39.1705 41.3996 39.3935 43.7973 39.3671 45.0074C38.1663 45.0364 35.8702 45.0046 34.9402 44.0797C33.9677 43.1125 33.7015 41.4224 34.7357 40.3939C35.1858 39.9463 35.7868 39.726 36.4097 39.726Z" fill="white"/>
<path d="M49.516 38.1233C51.3422 39.9391 51.5855 42.8011 50.3343 45.0074H74.9999V36.9506C74.9999 34.4218 72.9462 32.3718 70.4128 32.3718H42.5959V37.3155C44.844 36.047 47.6846 36.3023 49.516 38.1233C50.5564 39.1578 47.6846 36.3023 49.516 38.1233Z" fill="white"/>
<path d="M35.8674 54.0191L33.5917 51.7581L37.1272 48.2125H25V63.0494C25 65.5782 27.0537 67.6282 29.5871 67.6282H39.385V50.4916L35.8674 54.0191Z" fill="white"/>
<path d="M44.8396 48.2125L48.3281 51.7289L46.0465 53.984L42.5959 50.5059V67.6282H70.4128C72.9462 67.6282 74.9999 65.5782 74.9999 63.0495V48.2125H44.8396Z" fill="white"/>
<path d="M31.6467 45.0074C30.3953 42.8008 30.639 39.939 32.465 38.1233C34.2963 36.3023 37.1369 36.0471 39.385 37.3155V32.3718H29.5871C27.0537 32.3718 25 34.4218 25 36.9506V45.0074H31.6467Z" fill="white"/>
</g>
<defs>
<clipPath id="clip0_181_38831">
<rect width="50" height="50" fill="white" transform="translate(25 25)"/>
</clipPath>
</defs>
</svg>
