<svg width="31" height="29" viewBox="0 0 31 29" fill="none" xmlns="http://www.w3.org/2000/svg">
<path d="M11.3003 18.45L11.1503 18.3L11.3003 18.15C12.0503 17.55 12.5003 16.65 12.5003 15.6C12.5003 13.65 10.8503 12 8.90035 12C6.95035 12 5.30035 13.65 5.30035 15.6C5.30035 16.65 5.75035 17.55 6.35035 18.15L6.50035 18.3L6.35035 18.45C5.15035 19.35 4.40035 20.7 4.40035 22.2V24.15C4.25035 24.6 4.55035 24.9 5.00035 24.9H12.5003C12.9503 24.9 13.2503 24.6 13.2503 24.15V22.2C13.2503 20.7 12.5003 19.35 11.3003 18.45ZM8.90035 13.65C10.1003 13.65 11.0003 14.55 11.0003 15.75C11.0003 16.95 10.1003 17.85 8.90035 17.85C7.70035 17.85 6.80035 16.95 6.80035 15.75C6.80035 14.55 7.70035 13.65 8.90035 13.65ZM11.9003 23.25H5.90035V22.2C5.90035 20.55 7.25035 19.2 8.90035 19.2C10.5503 19.2 11.9003 20.55 11.9003 22.2V23.25Z" fill="#FB607F"/>
<path d="M22.0996 17.4004C22.5138 17.4004 22.8496 17.0646 22.8496 16.6504C22.8496 16.2362 22.5138 15.9004 22.0996 15.9004C21.6854 15.9004 21.3496 16.2362 21.3496 16.6504C21.3496 17.0646 21.6854 17.4004 22.0996 17.4004Z" fill="#FB607F"/>
<path d="M26.0001 15.9004C25.5501 15.9004 25.2501 16.2004 25.2501 16.6504C25.1001 16.9504 25.5501 17.4004 26.0001 17.4004C26.4501 17.4004 26.7501 17.1004 26.7501 16.6504C26.7501 16.2004 26.4501 15.9004 26.0001 15.9004Z" fill="#FB607F"/>
<path d="M18.3496 17.4004C18.7638 17.4004 19.0996 17.0646 19.0996 16.6504C19.0996 16.2362 18.7638 15.9004 18.3496 15.9004C17.9354 15.9004 17.5996 16.2362 17.5996 16.6504C17.5996 17.0646 17.9354 17.4004 18.3496 17.4004Z" fill="#FB607F"/>
<path d="M25.8496 19.6504H18.3496C17.8996 19.6504 17.5996 19.9504 17.5996 20.4004C17.5996 20.8504 17.8996 21.1504 18.3496 21.1504H25.8496C26.2996 21.1504 26.5996 20.8504 26.5996 20.4004C26.5996 19.9504 26.2996 19.6504 25.8496 19.6504Z" fill="#FB607F"/>
<path d="M25.8496 23.4004H18.3496C17.8996 23.4004 17.5996 23.7004 17.5996 24.1504C17.5996 24.6004 17.8996 24.9004 18.3496 24.9004H25.8496C26.2996 24.9004 26.5996 24.6004 26.5996 24.1504C26.5996 23.7004 26.2996 23.4004 25.8496 23.4004Z" fill="#FB607F"/>
<path d="M30.05 7.65039C30.05 7.50039 30.05 7.20039 30.05 7.05039C30.05 3.30039 27.05 0.150391 23.15 0.150391C19.7 0.150391 16.7 2.85039 16.4 6.30039H3.2C1.7 6.30039 0.5 7.50039 0.5 9.00039V25.9504C0.5 27.4504 1.7 28.6504 3.2 28.6504H27.8C29.3 28.6504 30.5 27.4504 30.5 25.9504V9.00039C30.5 8.55039 30.35 8.10039 30.05 7.65039ZM23.3 1.95039C26.15 1.95039 28.4 4.20039 28.4 7.05039C28.4 9.90039 26.15 12.1504 23.3 12.1504C20.45 12.1504 18.2 9.90039 18.2 7.05039C18.2 4.20039 20.45 1.95039 23.3 1.95039ZM27.95 27.0004H3.2C2.6 27.0004 2.15 26.5504 2.15 25.9504L2 9.00039C2 8.40039 2.6 7.95039 3.2 7.95039H16.55C17 11.2504 19.85 13.9504 23.3 13.9504C25.7 13.9504 27.8 12.7504 29 10.9504V26.1004C29 26.5504 28.55 27.0004 27.95 27.0004Z" fill="#FB607F"/>
<path d="M20.3008 9.60039C20.3008 9.75039 20.3008 9.90039 20.4508 10.0504C20.6008 10.2004 20.7508 10.2004 20.9008 10.2004C21.0508 10.2004 21.2008 10.2004 21.3508 10.0504L23.4508 7.95039L25.5508 10.0504C25.7008 10.2004 25.8508 10.2004 26.0008 10.2004C26.1508 10.2004 26.3008 10.2004 26.4508 10.0504C26.6008 9.90039 26.6008 9.75039 26.6008 9.60039C26.6008 9.45039 26.6008 9.30039 26.4508 9.15039L24.3508 7.05039L26.4508 4.95039C26.6008 4.80039 26.6008 4.65039 26.6008 4.50039C26.6008 4.35039 26.6008 4.20039 26.4508 4.05039C26.3008 3.90039 26.1508 3.90039 26.0008 3.90039C25.8508 3.90039 25.7008 3.90039 25.5508 4.05039L23.4508 6.15039L21.3508 4.05039C21.2008 3.90039 21.0508 3.90039 20.9008 3.90039C20.7508 3.90039 20.6008 3.90039 20.4508 4.05039C20.3008 4.20039 20.3008 4.35039 20.3008 4.50039C20.3008 4.65039 20.3008 4.80039 20.4508 4.95039L22.5508 7.05039L20.4508 9.15039C20.3008 9.30039 20.3008 9.45039 20.3008 9.60039Z" fill="#FB607F"/>
</svg>
