<svg width="31" height="30" viewBox="0 0 31 30" fill="none" xmlns="http://www.w3.org/2000/svg">
<path d="M5.00035 25.9508H12.5003C12.9503 25.9508 13.2503 25.6508 13.2503 25.2008V23.2508C13.2503 21.7508 12.5003 20.4008 11.3003 19.5008L11.1503 19.3508L11.3003 19.2008C12.0503 18.6008 12.5003 17.7008 12.5003 16.6508C12.5003 14.7008 10.8503 13.0508 8.90035 13.0508C6.95035 13.0508 5.30035 14.7008 5.30035 16.6508C5.30035 17.7008 5.75035 18.6008 6.35035 19.2008L6.50035 19.3508L6.35035 19.5008C5.15035 20.4008 4.40035 21.7508 4.40035 23.2508V25.2008C4.25035 25.6508 4.55035 25.9508 5.00035 25.9508ZM8.90035 14.7008C10.1003 14.7008 11.0003 15.6008 11.0003 16.8008C11.0003 18.0008 10.1003 18.9008 8.90035 18.9008C7.70035 18.9008 6.80035 18.0008 6.80035 16.8008C6.80035 15.6008 7.70035 14.7008 8.90035 14.7008ZM8.90035 20.2508C10.5503 20.2508 11.9003 21.6008 11.9003 23.2508V24.3008H5.90035V23.2508C5.90035 21.6008 7.25035 20.2508 8.90035 20.2508Z" fill="#FB607F"/>
<path d="M22.0996 18.4512C22.5496 18.4512 22.8496 18.1512 22.8496 17.7012C22.8496 17.2512 22.5496 16.9512 22.0996 16.9512C21.6496 16.9512 21.3496 17.2512 21.3496 17.7012C21.3496 18.0012 21.7996 18.4512 22.0996 18.4512Z" fill="#FB607F"/>
<path d="M26.0001 18.4512C26.4501 18.4512 26.7501 18.1512 26.7501 17.7012C26.7501 17.2512 26.4501 16.9512 26.0001 16.9512C25.5501 16.9512 25.2501 17.2512 25.2501 17.7012C25.1001 18.0012 25.5501 18.4512 26.0001 18.4512Z" fill="#FB607F"/>
<path d="M18.3496 18.4512C18.7996 18.4512 19.0996 18.1512 19.0996 17.7012C19.0996 17.2512 18.7996 16.9512 18.3496 16.9512C17.8996 16.9512 17.5996 17.2512 17.5996 17.7012C17.5996 18.0012 17.8996 18.4512 18.3496 18.4512Z" fill="#FB607F"/>
<path d="M18.3496 22.2012H25.8496C26.2996 22.2012 26.5996 21.9012 26.5996 21.4512C26.5996 21.0012 26.2996 20.7012 25.8496 20.7012H18.3496C17.8996 20.7012 17.5996 21.0012 17.5996 21.4512C17.5996 21.9012 17.8996 22.2012 18.3496 22.2012Z" fill="#FB607F"/>
<path d="M18.3496 25.9512H25.8496C26.2996 25.9512 26.5996 25.6512 26.5996 25.2012C26.5996 24.7512 26.2996 24.4512 25.8496 24.4512H18.3496C17.8996 24.4512 17.5996 24.7512 17.5996 25.2012C17.5996 25.6512 17.8996 25.9512 18.3496 25.9512Z" fill="#FB607F"/>
<path d="M21.8008 7.20078C21.6508 7.05078 21.5008 6.90078 21.2008 6.90078C20.9008 6.90078 20.7508 7.05078 20.6008 7.20078C20.4508 7.35078 20.3008 7.50078 20.3008 7.80078C20.3008 7.95078 20.4508 8.25078 20.6008 8.40078L22.5508 10.3508C22.7008 10.5008 22.8508 10.6508 23.1508 10.6508C23.3008 10.6508 23.6008 10.5008 23.7508 10.3508L27.5008 6.30078C27.6508 6.15078 27.8008 6.00078 27.8008 5.70078C27.8008 5.55078 27.6508 5.25078 27.5008 5.10078C27.3508 4.95078 27.2008 4.80078 26.9008 4.80078C26.7508 4.80078 26.4508 4.95078 26.3008 5.10078L23.0008 8.40078L21.8008 7.20078Z" fill="#FB607F"/>
<path d="M29.9 8.40039C30.05 7.50039 30.2 6.75039 30.2 6.00039V3.00039C30.2 2.85039 30.05 2.70039 29.9 2.55039L24.05 0.150391H23.9H23.75L17.9 2.55039C17.75 2.55039 17.6 2.70039 17.6 3.00039V6.00039C17.6 6.45039 17.6 6.75039 17.75 7.20039V7.35039H3.2C1.7 7.35039 0.5 8.55039 0.5 10.0504V27.0004C0.5 28.5004 1.7 29.7004 3.2 29.7004H27.8C29.3 29.7004 30.5 28.5004 30.5 27.0004V10.0504C30.5 9.45039 30.35 9.00039 29.9 8.40039ZM2 10.0504C2 9.45039 2.6 9.00039 3.2 9.00039H18.2V9.15039C19.1 11.8504 21.2 14.1004 23.75 15.1504H23.9H24.05C25.85 14.4004 27.5 13.0504 28.55 11.4004L29 10.8004V27.0004C29 27.6004 28.55 28.0504 27.95 28.0504H3.2C2.6 28.0504 2.15 27.6004 2.15 27.0004V10.0504H2ZM28.7 6.30039C28.7 9.45039 26.9 12.1504 24.05 13.3504C21.2 12.1504 19.4 9.30039 19.4 6.30039V3.90039L24.05 1.95039L28.7 3.90039V6.30039Z" fill="#FB607F"/>
</svg>
