<svg width="72" height="89" viewBox="0 0 72 89" fill="none" xmlns="http://www.w3.org/2000/svg">
<path d="M70.05 1.78527e-05C56.2011 -0.00987072 42.6604 4.0884 31.1413 11.7763C19.6222 19.4642 10.6424 30.3962 5.33802 43.1891C0.0336905 55.9819 -1.35674 70.0607 1.34263 83.644C4.042 97.2274 10.7099 109.705 20.5025 119.497C30.2952 129.29 42.7726 135.958 56.356 138.657C69.9393 141.357 84.0181 139.966 96.811 134.662C109.604 129.358 120.536 120.378 128.224 108.859C135.912 97.3397 140.01 83.7989 140 69.95C139.987 51.4022 132.613 33.6178 119.498 20.5025C106.382 7.38722 88.5979 0.0132616 70.05 1.78527e-05V1.78527e-05ZM70.05 126.12C58.9406 126.12 48.0807 122.826 38.8436 116.654C29.6065 110.482 22.4071 101.709 18.1557 91.4454C13.9043 81.1816 12.792 69.8877 14.9593 58.9918C17.1266 48.0959 22.4763 38.0873 30.3318 30.2318C38.1873 22.3763 48.1959 17.0266 59.0918 14.8593C69.9877 12.692 81.2816 13.8043 91.5453 18.0557C101.809 22.3071 110.582 29.5065 116.754 38.7436C122.926 47.9808 126.22 58.8406 126.22 69.95C126.217 84.8464 120.299 99.1319 109.765 109.665C99.2319 120.199 84.9464 126.117 70.05 126.12V126.12Z" fill="#FB607F"/>
</svg>
