<svg width="248" height="138" viewBox="0 0 248 138" fill="none" xmlns="http://www.w3.org/2000/svg">
<g filter="url(#filter0_d_1_56266)">
<path d="M206.248 30.1719C205.456 25.6608 201.7 22.2645 197.132 21.9285L45.7318 10.7897C39.9356 10.3633 34.998 14.9509 34.998 20.7627V70C34.998 75.5229 39.4752 80 44.998 80H203.089C209.304 80 214.013 74.3913 212.938 68.2704L206.248 30.1719Z" fill="#FB607F"/>
</g>
<path d="M91.15 45.272H93.118V49.736C92.542 50.1947 91.87 50.5467 91.102 50.792C90.334 51.0373 89.5447 51.16 88.734 51.16C87.5927 51.16 86.5634 50.9147 85.646 50.424C84.7287 49.9227 84.0087 49.2347 83.486 48.36C82.9634 47.4853 82.702 46.4987 82.702 45.4C82.702 44.3013 82.9634 43.3147 83.486 42.44C84.0087 41.5653 84.7287 40.8827 85.646 40.392C86.574 39.8907 87.614 39.64 88.766 39.64C89.7047 39.64 90.558 39.7947 91.326 40.104C92.094 40.4133 92.7394 40.8667 93.262 41.464L91.95 42.744C91.0967 41.8907 90.0674 41.464 88.862 41.464C88.0727 41.464 87.3687 41.6293 86.75 41.96C86.142 42.2907 85.662 42.7547 85.31 43.352C84.9687 43.9493 84.798 44.632 84.798 45.4C84.798 46.1467 84.9687 46.8187 85.31 47.416C85.662 48.0133 86.142 48.4827 86.75 48.824C87.3687 49.1653 88.0674 49.336 88.846 49.336C89.7207 49.336 90.4887 49.144 91.15 48.76V45.272ZM95.6694 42.456H97.6694V51H95.6694V42.456ZM96.6774 41.048C96.3148 41.048 96.0108 40.936 95.7654 40.712C95.5201 40.4773 95.3974 40.1893 95.3974 39.848C95.3974 39.5067 95.5201 39.224 95.7654 39C96.0108 38.7653 96.3148 38.648 96.6774 38.648C97.0401 38.648 97.3441 38.76 97.5894 38.984C97.8348 39.1973 97.9574 39.4693 97.9574 39.8C97.9574 40.152 97.8348 40.4507 97.5894 40.696C97.3548 40.9307 97.0508 41.048 96.6774 41.048ZM103.766 40.632C102.924 40.632 102.502 41.0907 102.502 42.008V42.52H104.854V44.12H102.566V51H100.566V44.12H99.1584V42.52H100.566V41.976C100.566 41.0587 100.833 40.3387 101.366 39.816C101.9 39.2827 102.652 39.016 103.622 39.016C104.39 39.016 104.993 39.1707 105.43 39.48L104.87 40.984C104.529 40.7493 104.161 40.632 103.766 40.632ZM111.337 50.536C111.102 50.728 110.814 50.872 110.473 50.968C110.142 51.064 109.79 51.112 109.417 51.112C108.478 51.112 107.753 50.8667 107.241 50.376C106.729 49.8853 106.473 49.1707 106.473 48.232V44.12H105.065V42.52H106.473V40.568H108.473V42.52H110.761V44.12H108.473V48.184C108.473 48.6 108.574 48.92 108.777 49.144C108.979 49.3573 109.273 49.464 109.657 49.464C110.105 49.464 110.478 49.3467 110.777 49.112L111.337 50.536ZM120.668 42.36C121.926 42.36 122.886 42.664 123.548 43.272C124.22 43.8693 124.556 44.776 124.556 45.992V51H122.668V49.96C122.422 50.3333 122.07 50.6213 121.612 50.824C121.164 51.016 120.62 51.112 119.98 51.112C119.34 51.112 118.78 51.0053 118.3 50.792C117.82 50.568 117.446 50.264 117.18 49.88C116.924 49.4853 116.796 49.0427 116.796 48.552C116.796 47.784 117.078 47.1707 117.644 46.712C118.22 46.2427 119.121 46.008 120.348 46.008H122.556V45.88C122.556 45.2827 122.374 44.824 122.012 44.504C121.66 44.184 121.132 44.024 120.428 44.024C119.948 44.024 119.473 44.0987 119.004 44.248C118.545 44.3973 118.156 44.6053 117.836 44.872L117.052 43.416C117.5 43.0747 118.038 42.8133 118.668 42.632C119.297 42.4507 119.964 42.36 120.668 42.36ZM120.396 49.656C120.897 49.656 121.34 49.544 121.724 49.32C122.118 49.0853 122.396 48.7547 122.556 48.328V47.336H120.492C119.34 47.336 118.764 47.7147 118.764 48.472C118.764 48.8347 118.908 49.1227 119.196 49.336C119.484 49.5493 119.884 49.656 120.396 49.656ZM136.92 51.16C135.79 51.16 134.766 50.9147 133.848 50.424C132.942 49.9227 132.227 49.2347 131.704 48.36C131.192 47.4853 130.936 46.4987 130.936 45.4C130.936 44.3013 131.198 43.3147 131.72 42.44C132.243 41.5653 132.958 40.8827 133.864 40.392C134.782 39.8907 135.806 39.64 136.936 39.64C137.854 39.64 138.691 39.8 139.448 40.12C140.206 40.44 140.846 40.904 141.368 41.512L140.024 42.776C139.214 41.9013 138.216 41.464 137.032 41.464C136.264 41.464 135.576 41.6347 134.968 41.976C134.36 42.3067 133.886 42.7707 133.544 43.368C133.203 43.9653 133.032 44.6427 133.032 45.4C133.032 46.1573 133.203 46.8347 133.544 47.432C133.886 48.0293 134.36 48.4987 134.968 48.84C135.576 49.1707 136.264 49.336 137.032 49.336C138.216 49.336 139.214 48.8933 140.024 48.008L141.368 49.288C140.846 49.896 140.2 50.36 139.432 50.68C138.675 51 137.838 51.16 136.92 51.16ZM146.355 42.36C147.614 42.36 148.574 42.664 149.235 43.272C149.907 43.8693 150.243 44.776 150.243 45.992V51H148.355V49.96C148.11 50.3333 147.758 50.6213 147.299 50.824C146.851 51.016 146.307 51.112 145.667 51.112C145.027 51.112 144.467 51.0053 143.987 50.792C143.507 50.568 143.134 50.264 142.867 49.88C142.611 49.4853 142.483 49.0427 142.483 48.552C142.483 47.784 142.766 47.1707 143.331 46.712C143.907 46.2427 144.809 46.008 146.035 46.008H148.243V45.88C148.243 45.2827 148.062 44.824 147.699 44.504C147.347 44.184 146.819 44.024 146.115 44.024C145.635 44.024 145.161 44.0987 144.691 44.248C144.233 44.3973 143.843 44.6053 143.523 44.872L142.739 43.416C143.187 43.0747 143.726 42.8133 144.355 42.632C144.985 42.4507 145.651 42.36 146.355 42.36ZM146.083 49.656C146.585 49.656 147.027 49.544 147.411 49.32C147.806 49.0853 148.083 48.7547 148.243 48.328V47.336H146.179C145.027 47.336 144.451 47.7147 144.451 48.472C144.451 48.8347 144.595 49.1227 144.883 49.336C145.171 49.5493 145.571 49.656 146.083 49.656ZM154.714 43.704C155.29 42.808 156.303 42.36 157.754 42.36V44.264C157.583 44.232 157.429 44.216 157.29 44.216C156.511 44.216 155.903 44.4453 155.466 44.904C155.029 45.352 154.81 46.0027 154.81 46.856V51H152.81V42.456H154.714V43.704ZM167.741 39.128V51H165.821V49.896C165.49 50.3013 165.079 50.6053 164.589 50.808C164.109 51.0107 163.575 51.112 162.989 51.112C162.167 51.112 161.426 50.9307 160.765 50.568C160.114 50.2053 159.602 49.6933 159.229 49.032C158.855 48.36 158.669 47.592 158.669 46.728C158.669 45.864 158.855 45.1013 159.229 44.44C159.602 43.7787 160.114 43.2667 160.765 42.904C161.426 42.5413 162.167 42.36 162.989 42.36C163.554 42.36 164.071 42.456 164.541 42.648C165.01 42.84 165.41 43.128 165.741 43.512V39.128H167.741ZM163.229 49.4C163.709 49.4 164.141 49.2933 164.525 49.08C164.909 48.856 165.213 48.5413 165.437 48.136C165.661 47.7307 165.773 47.2613 165.773 46.728C165.773 46.1947 165.661 45.7253 165.437 45.32C165.213 44.9147 164.909 44.6053 164.525 44.392C164.141 44.168 163.709 44.056 163.229 44.056C162.749 44.056 162.317 44.168 161.933 44.392C161.549 44.6053 161.245 44.9147 161.021 45.32C160.797 45.7253 160.685 46.1947 160.685 46.728C160.685 47.2613 160.797 47.7307 161.021 48.136C161.245 48.5413 161.549 48.856 161.933 49.08C162.317 49.2933 162.749 49.4 163.229 49.4Z" fill="white"/>
<defs>
<filter id="filter0_d_1_56266" x="0.998047" y="0.761719" width="246.094" height="137.238" filterUnits="userSpaceOnUse" color-interpolation-filters="sRGB">
<feFlood flood-opacity="0" result="BackgroundImageFix"/>
<feColorMatrix in="SourceAlpha" type="matrix" values="0 0 0 0 0 0 0 0 0 0 0 0 0 0 0 0 0 0 127 0" result="hardAlpha"/>
<feOffset dy="24"/>
<feGaussianBlur stdDeviation="17"/>
<feComposite in2="hardAlpha" operator="out"/>
<feColorMatrix type="matrix" values="0 0 0 0 0.12549 0 0 0 0 0.27451 0 0 0 0 0.392157 0 0 0 0.1 0"/>
<feBlend mode="normal" in2="BackgroundImageFix" result="effect1_dropShadow_1_56266"/>
<feBlend mode="normal" in="SourceGraphic" in2="effect1_dropShadow_1_56266" result="shape"/>
</filter>
</defs>
</svg>
