<svg width="30" height="30" viewBox="0 0 30 30" fill="none" xmlns="http://www.w3.org/2000/svg">
<path d="M24.3004 9.9C24.4504 10.05 24.6004 10.05 24.7504 10.05C25.0504 10.05 25.3504 9.9 25.5004 9.75C25.6504 9.6 25.6504 9.3 25.6504 9.15C25.6504 8.85 25.5004 8.7 25.3504 8.55L23.7004 7.35V4.65C23.7004 4.2 23.2504 3.75 22.8004 3.75C22.3504 3.75 21.9004 4.2 21.9004 4.65V7.65C21.9004 7.95 22.0504 8.25 22.2004 8.4L24.3004 9.9Z" fill="#FB607F"/>
<path d="M10.8003 19.0496L10.6503 18.8996L10.8003 18.7496C11.5503 18.1496 12.0003 17.2496 12.0003 16.1996C12.0003 14.2496 10.3503 12.5996 8.40035 12.5996C6.45035 12.5996 4.80035 14.2496 4.80035 16.1996C4.80035 17.2496 5.25035 18.1496 5.85035 18.7496L6.00035 18.8996L5.85035 19.0496C4.65035 19.9496 3.90035 21.2996 3.90035 22.7996V24.7496C3.75035 25.1996 4.05035 25.4996 4.50035 25.4996H12.0003C12.4503 25.4996 12.7503 25.1996 12.7503 24.7496V22.7996C12.7503 21.2996 12.0003 19.9496 10.8003 19.0496ZM8.40035 14.2496C9.60035 14.2496 10.5003 15.1496 10.5003 16.3496C10.5003 17.5496 9.60035 18.4496 8.40035 18.4496C7.20035 18.4496 6.30035 17.5496 6.30035 16.3496C6.30035 15.1496 7.20035 14.2496 8.40035 14.2496ZM11.4003 23.8496H5.40035V22.7996C5.40035 21.1496 6.75035 19.7996 8.40035 19.7996C10.0503 19.7996 11.4003 21.1496 11.4003 22.7996V23.8496Z" fill="#FB607F"/>
<path d="M21.5996 18C22.0138 18 22.3496 17.6642 22.3496 17.25C22.3496 16.8358 22.0138 16.5 21.5996 16.5C21.1854 16.5 20.8496 16.8358 20.8496 17.25C20.8496 17.6642 21.1854 18 21.5996 18Z" fill="#FB607F"/>
<path d="M25.5001 16.5C25.0501 16.5 24.7501 16.8 24.7501 17.25C24.6001 17.55 25.0501 18 25.5001 18C25.9501 18 26.2501 17.7 26.2501 17.25C26.2501 16.8 25.9501 16.5 25.5001 16.5Z" fill="#FB607F"/>
<path d="M17.8496 18C18.2638 18 18.5996 17.6642 18.5996 17.25C18.5996 16.8358 18.2638 16.5 17.8496 16.5C17.4354 16.5 17.0996 16.8358 17.0996 17.25C17.0996 17.6642 17.4354 18 17.8496 18Z" fill="#FB607F"/>
<path d="M25.3496 20.25H17.8496C17.3996 20.25 17.0996 20.55 17.0996 21C17.0996 21.45 17.3996 21.75 17.8496 21.75H25.3496C25.7996 21.75 26.0996 21.45 26.0996 21C26.0996 20.55 25.7996 20.25 25.3496 20.25Z" fill="#FB607F"/>
<path d="M25.3496 24H17.8496C17.3996 24 17.0996 24.3 17.0996 24.75C17.0996 25.2 17.3996 25.5 17.8496 25.5H25.3496C25.7996 25.5 26.0996 25.2 26.0996 24.75C26.0996 24.3 25.7996 24 25.3496 24Z" fill="#FB607F"/>
<path d="M29.55 8.25C29.55 8.1 29.55 7.8 29.55 7.65C29.55 3.9 26.55 0.75 22.65 0.75C19.2 0.75 16.2 3.45 15.9 6.9H2.7C1.2 6.9 0 8.1 0 9.6V26.55C0 28.05 1.2 29.25 2.7 29.25H27.3C28.8 29.25 30 28.05 30 26.55V9.6C30 9.15 29.85 8.7 29.55 8.25ZM22.8 2.55C25.65 2.55 27.9 4.8 27.9 7.65C27.9 10.5 25.65 12.75 22.8 12.75C19.95 12.75 17.7 10.5 17.7 7.65C17.7 4.8 19.95 2.55 22.8 2.55ZM27.45 27.6H2.7C2.1 27.6 1.65 27.15 1.65 26.55L1.5 9.6C1.5 9 2.1 8.55 2.7 8.55H16.05C16.5 11.85 19.35 14.55 22.8 14.55C25.2 14.55 27.3 13.35 28.5 11.55V26.7C28.5 27.15 28.05 27.6 27.45 27.6Z" fill="#FB607F"/>
</svg>
