<svg width="166" height="166" viewBox="0 0 166 166" fill="none" xmlns="http://www.w3.org/2000/svg">
<g clip-path="url(#clip0_786_96072)">
<path d="M82.0319 68.6825H82.1011L115.993 57.1317C116.131 56.5092 116.131 55.8867 116.131 55.3333C116.131 54.7108 116.062 54.1575 115.854 53.6042C115.301 52.0133 114.264 50.2842 112.811 49.0392V33.8917C112.811 22.6867 108.799 18.26 104.649 15.7008C102.505 9.19917 93.5828 0 76.0836 0C55.3336 0 39.7019 20.5425 39.7019 33.8917C39.7019 39.425 39.4944 43.7825 39.2869 47.1025C39.2869 47.7942 39.2178 48.4167 39.2178 48.97C37.6961 50.3533 36.6586 52.2208 36.1744 54.0192C36.1053 54.4342 36.0361 54.8492 36.0361 55.3333C36.0361 60.7283 39.0794 68.5442 39.4944 69.4433C39.9094 70.6192 40.8086 71.5875 41.9844 72.1408C42.0536 72.4175 42.1228 72.8325 42.1228 73.6625C42.1228 80.9942 48.4169 87.9108 51.8753 91.2308C51.5294 98.8392 49.3853 104.096 46.3419 105.41L19.2286 114.402C11.5511 116.961 5.81027 123.186 3.80444 131.071L0.138602 145.734C-0.207232 147.256 0.138601 148.916 1.10693 150.161C2.07527 151.406 3.59694 152.167 5.18777 152.167H82.7236C80.6486 149.538 78.7119 146.633 76.9136 143.521C72.3486 135.428 69.1669 125.607 69.1669 114.471V86.735C69.1669 78.5733 74.3544 71.38 82.0319 68.6825Z" fill="#FB607F"/>
<path d="M162.479 81.7974L126.167 69.4442C125.088 69.0707 123.912 69.0707 122.833 69.4442L86.5206 81.7974C84.411 82.5098 83 84.481 83 86.7082V114.499C83 148.419 120.862 164.908 122.473 165.593C123.774 166.139 125.226 166.139 126.527 165.593C128.138 164.901 166 148.419 166 114.499V86.7082C166 84.481 164.589 82.5098 162.479 81.7974ZM147.228 108.025L128.207 132.234C125.786 135.325 121.249 135.775 118.268 133.216L106.164 122.841C103.259 120.358 102.92 115.986 105.417 113.088C107.9 110.19 112.271 109.858 115.162 112.341L121.789 118.02L136.348 99.4902C138.707 96.4884 143.051 95.9558 146.059 98.3282C149.068 100.673 149.594 105.024 147.228 108.025Z" fill="#5BB45B"/>
</g>
<defs>
<clipPath id="clip0_786_96072">
<rect width="166" height="166" fill="white"/>
</clipPath>
</defs>
</svg>
