<svg width="30" height="30" viewBox="0 0 30 30" fill="none" xmlns="http://www.w3.org/2000/svg">
<path d="M10.8003 15.9012L10.6503 15.7512L10.8003 15.6012C11.5503 15.1512 12.0003 14.1012 12.0003 13.0512C12.0003 11.1012 10.3503 9.45117 8.40035 9.45117C6.45035 9.45117 4.80035 11.1012 4.80035 13.0512C4.80035 14.1012 5.25035 15.0012 5.85035 15.6012L6.00035 15.9012L5.85035 16.0512C4.65035 16.9512 3.90035 18.3012 3.90035 19.8012V21.7512C3.75035 22.2012 4.05035 22.5012 4.50035 22.5012H12.0003C12.4503 22.5012 12.7503 22.2012 12.7503 21.7512V19.8012C12.7503 18.1512 12.0003 16.8012 10.8003 15.9012ZM8.40035 11.1012C9.60035 11.1012 10.5003 12.1512 10.5003 13.3512C10.5003 14.5512 9.60035 15.4512 8.40035 15.4512C7.20035 15.4512 6.30035 14.5512 6.30035 13.3512C6.30035 12.1512 7.20035 11.1012 8.40035 11.1012ZM11.4003 20.8512H5.40035V19.8012C5.40035 18.1512 6.75035 16.8012 8.40035 16.8012C10.0503 16.8012 11.4003 18.1512 11.4003 19.8012V20.8512Z" fill="#FB607F"/>
<path d="M21.5996 14.8496C22.0138 14.8496 22.3496 14.5138 22.3496 14.0996C22.3496 13.6854 22.0138 13.3496 21.5996 13.3496C21.1854 13.3496 20.8496 13.6854 20.8496 14.0996C20.8496 14.5138 21.1854 14.8496 21.5996 14.8496Z" fill="#FB607F"/>
<path d="M25.5001 13.3496C25.0501 13.3496 24.7501 13.6496 24.7501 14.0996C24.6001 14.3996 25.0501 14.8496 25.5001 14.8496C25.9501 14.8496 26.2501 14.5496 26.2501 14.0996C26.2501 13.6496 25.9501 13.3496 25.5001 13.3496Z" fill="#FB607F"/>
<path d="M17.8496 14.8496C18.2638 14.8496 18.5996 14.5138 18.5996 14.0996C18.5996 13.6854 18.2638 13.3496 17.8496 13.3496C17.4354 13.3496 17.0996 13.6854 17.0996 14.0996C17.0996 14.5138 17.4354 14.8496 17.8496 14.8496Z" fill="#FB607F"/>
<path d="M25.3496 17.0996H17.8496C17.3996 17.0996 17.0996 17.3996 17.0996 17.8496C17.0996 18.2996 17.3996 18.5996 17.8496 18.5996H25.3496C25.7996 18.5996 26.0996 18.2996 26.0996 17.8496C26.0996 17.3996 25.7996 17.0996 25.3496 17.0996Z" fill="#FB607F"/>
<path d="M25.3496 20.8496H17.8496C17.3996 20.8496 17.0996 21.1496 17.0996 21.5996C17.0996 22.0496 17.3996 22.3496 17.8496 22.3496H25.3496C25.7996 22.3496 26.0996 22.0496 26.0996 21.5996C26.0996 21.1496 25.7996 20.8496 25.3496 20.8496Z" fill="#FB607F"/>
<path d="M27.3 3.90039H14.7H13.35H2.7C1.2 3.90039 0 5.10039 0 6.60039V23.5504C0 25.0504 1.2 26.2504 2.7 26.2504H22.35H27.3C28.8 26.2504 30 25.0504 30 23.5504V11.1004V6.60039C30 5.10039 28.8 3.90039 27.3 3.90039ZM22.35 24.6004H2.7C2.1 24.6004 1.65 24.1504 1.65 23.5504L1.5 6.60039C1.5 6.00039 2.1 5.55039 2.7 5.55039H13.35H14.7H27.3C27.9 5.55039 28.5 6.00039 28.5 6.60039L28.35 23.5504C28.35 24.1504 27.9 24.6004 27.3 24.6004H22.35V24.6004Z" fill="#FB607F"/>
</svg>
