<svg width="158" height="158" viewBox="0 0 158 158" fill="none" xmlns="http://www.w3.org/2000/svg">
<circle cx="79" cy="79" r="79" fill="#F66060"/>
<g clip-path="url(#clip0_786_88169)">
<path d="M86.2376 79.0634L116.999 48.2762C119.001 46.2736 119.001 43.0358 116.999 41.0332C114.998 39.0306 111.762 39.0306 109.762 41.0332L78.9996 71.8203L48.2385 41.0332C46.2366 39.0306 43.0023 39.0306 41.0014 41.0332C38.9995 43.0358 38.9995 46.2736 41.0014 48.2762L71.7624 79.0634L41.0014 109.851C38.9995 111.853 38.9995 115.091 41.0014 117.094C41.9986 118.093 43.3097 118.594 44.62 118.594C45.9302 118.594 47.2404 118.093 48.2385 117.094L78.9996 86.3064L109.762 117.094C110.76 118.093 112.07 118.594 113.38 118.594C114.69 118.594 116.001 118.093 116.999 117.094C119.001 115.091 119.001 111.853 116.999 109.851L86.2376 79.0634Z" fill="white"/>
</g>
<defs>
<clipPath id="clip0_786_88169">
<rect width="79" height="79" fill="white" transform="translate(39.5 39.5)"/>
</clipPath>
</defs>
</svg>
