<svg width="1498" height="688" viewBox="0 0 1498 688" fill="none" xmlns="http://www.w3.org/2000/svg">
<path opacity="0.5" d="M0 640C0 656.802 0 665.202 3.2698 671.62C6.14601 677.265 10.7354 681.854 16.3803 684.73C22.7976 688 31.1984 688 48 688H1412.05C1440.13 688 1454.17 688 1462.12 682.119C1469.05 676.991 1473.45 669.13 1474.17 660.539C1475.01 650.685 1467.65 638.731 1452.92 614.824L1158.4 136.741C1153.84 129.338 1151.55 125.637 1148.5 122.825C1145.79 120.335 1142.64 118.364 1139.22 117.011C1135.36 115.483 1131.04 115.043 1122.39 114.164L52.8572 5.37637C34.5448 3.51372 25.3886 2.5824 18.3096 5.5777C12.0917 8.20869 6.94298 12.8602 3.69627 18.7801C0 25.5196 0 34.7231 0 53.13V640Z" fill="#FFF1F1"/>
<g opacity="0.5">
<mask id="mask0_321_38822" style="mask-type:alpha" maskUnits="userSpaceOnUse" x="0" y="3" width="1475" height="685">
<path d="M0 643C0 656.978 0 663.967 2.28361 669.481C5.32843 676.831 11.1687 682.672 18.5195 685.716C24.0326 688 31.0218 688 45 688H1417.42C1440.77 688 1452.44 688 1459.47 683.873C1468.84 678.371 1474.51 668.226 1474.28 657.358C1474.1 649.206 1467.98 639.27 1455.74 619.397L1157.62 135.48C1153.82 129.315 1151.92 126.232 1149.49 123.779C1146.24 120.509 1142.29 118.03 1137.93 116.534C1134.66 115.413 1131.06 115.046 1123.86 114.314L49.5536 5.04035C34.3211 3.49098 26.7049 2.71629 20.6578 4.69795C12.5949 7.34017 6.02797 13.273 2.58342 21.0271C0 26.8427 0 34.4982 0 49.8094V643Z" fill="#7DAFD3"/>
</mask>
<g mask="url(#mask0_321_38822)">
<g opacity="0.6">
<g opacity="0.2">
<path d="M839.017 617.491C815.912 603.039 795.525 585.959 779.215 566.252C800.961 559.683 821.348 550.487 839.017 539.976C862.802 525.524 883.189 507.788 899.499 487.424C910.372 493.993 922.605 499.248 936.876 503.19C955.224 507.788 976.97 510.416 1002.79 510.416C1142.11 510.416 1165.89 434.872 1165.89 323.199L1165.89 49.2714L839.697 49.2714L839.697 245.028C839.697 336.337 821.348 403.341 740.479 425.019C734.363 426.989 726.888 428.303 720.092 429.617C717.374 413.194 716.694 396.115 716.694 379.036L716.694 -98.5312L1290.25 -98.5313L1290.25 379.036C1290.25 528.152 1198.51 658.875 1003.47 658.875C936.196 658.875 881.83 643.11 839.017 617.491Z" fill="white"/>
</g>
<g opacity="0.4">
<path d="M674.562 580.302C713.297 580.302 747.955 575.046 779.216 565.85C800.962 559.281 821.349 550.084 839.018 539.574C862.803 525.122 883.19 507.386 899.5 487.022C915.13 468.629 927.362 447.608 936.876 425.273C953.186 387.173 961.341 345.131 961.341 301.119L961.341 48.869L839.698 48.869L839.698 244.625C839.698 335.935 821.349 402.938 740.48 424.616C734.364 426.587 726.889 427.901 720.093 429.215C706.501 431.185 691.551 432.499 674.562 432.499C535.249 432.499 511.464 356.955 511.464 245.282L511.464 48.869L716.015 48.869L716.015 -98.9336L387.782 -98.9336L387.782 301.119C387.782 449.578 479.524 580.302 674.562 580.302Z" fill="#B7B7B7"/>
</g>
</g>
</g>
</g>
</svg>
