<svg width="886" height="796" viewBox="0 0 886 796" fill="none" xmlns="http://www.w3.org/2000/svg">
<path opacity="0.43" d="M0.0222473 450.523C0.687653 451.742 1.37781 452.766 2.05383 453.865L4.13495 457.087L8.38217 463.477C11.2137 467.717 14.116 471.935 17.0147 476.138C22.8405 484.532 28.7606 492.859 34.7752 501.118C46.809 517.634 59.2746 533.835 71.9915 549.838C84.7084 565.841 97.7757 581.537 111.225 596.95L116.255 602.736L121.358 608.459C124.777 612.26 128.126 616.122 131.623 619.866L141.989 631.171L152.53 642.313C180.788 671.875 210.61 699.995 242.316 725.883C243.307 726.692 244.284 727.518 245.286 728.313L248.308 730.68L254.353 735.407L260.399 740.134C262.434 741.681 264.511 743.179 266.564 744.705L272.74 749.262C274.811 750.763 276.825 752.343 278.952 753.77L291.573 762.503C308.619 773.832 326.167 784.423 344.38 793.756C344.496 793.818 344.631 793.831 344.756 793.793C344.881 793.755 344.986 793.669 345.048 793.553C345.109 793.438 345.122 793.303 345.084 793.178C345.046 793.053 344.96 792.949 344.844 792.887C326.921 783.12 309.526 772.418 292.731 760.825L280.237 751.993C278.134 750.552 276.142 748.958 274.092 747.439L267.98 742.847C265.948 741.306 263.895 739.794 261.885 738.229L255.904 733.46L249.926 728.688L246.935 726.303C245.944 725.501 244.981 724.667 244.001 723.851L232.271 714.03C228.378 710.731 224.587 707.318 220.74 703.98C218.825 702.295 216.889 700.634 214.996 698.928L209.354 693.763L203.709 688.599C201.822 686.885 199.946 685.158 198.113 683.384C183.216 669.448 168.878 654.925 154.692 640.285C126.423 610.854 99.6728 579.989 73.9346 548.322C61.0867 532.465 48.5503 516.363 36.3254 500.016C30.2023 491.851 24.1642 483.625 18.211 475.34C15.2521 471.186 12.3144 467.015 9.39801 462.827L5.08002 456.511L2.95639 453.331C2.27328 452.272 1.54059 451.176 0.953064 450.152L0.896454 450.06C0.828583 449.957 0.723907 449.883 0.603607 449.854C0.483337 449.824 0.356445 449.842 0.248566 449.903C0.140656 449.963 0.059845 450.062 0.0224304 450.18C-0.0149841 450.298 -0.0062561 450.425 0.0469666 450.537L0.0222473 450.523Z" fill="white"/>
<g opacity="0.8">
<path d="M944.279 335.2L758.233 336.5L761.979 872.382L948.024 871.082L944.279 335.2Z" fill="#4A75CB"/>
<path d="M758.237 336.5L266.728 339.936L270.473 875.818L761.983 872.382L758.237 336.5Z" fill="#739AF0"/>
<path d="M760.33 636.15L760.067 598.643L268.558 602.078L268.82 639.585L760.33 636.15Z" fill="#AFCDFB"/>
<path d="M946.376 634.859L946.114 597.352L760.069 598.652L760.331 636.159L946.376 634.859Z" fill="#88B3FF"/>
<path d="M625.207 329.188C625.207 329.188 775.419 259.744 880.638 284.991L859.741 299.173L870.485 323.884C870.485 323.884 753.415 294.258 622.191 333.251L625.207 329.188Z" fill="#4A75CB"/>
<path d="M599.377 326.787C599.377 326.787 579.772 324.552 550.541 320.746C472.943 310.622 327.587 289.33 301.377 268.864C260.211 236.724 356.276 98.3091 398.153 78.8997C440.029 59.4903 599.377 326.787 599.377 326.787Z" fill="#72A9F7"/>
<path d="M905.394 153.081C912.634 187.16 596.57 336.78 596.57 336.78C596.57 336.78 602.224 321.152 611.438 296.648C645.099 207.18 726.235 -0.405558 753.401 2.27049C756.678 2.70019 759.87 3.62656 762.868 5.01775C804.734 23.0125 898.729 121.708 905.394 153.081Z" fill="#72A9F7"/>
<path d="M760.465 35.3292C741.332 69.0563 613.469 293.115 611.468 296.603C645.129 207.136 726.265 -0.450071 753.431 2.22598C756.787 2.19935 760.078 3.15425 762.898 4.97324C767.899 8.57056 771.022 16.6846 760.465 35.3292Z" fill="#4A75CB"/>
<path d="M550.592 320.702C472.994 310.579 327.638 289.287 301.429 268.821C289.429 235.752 319.947 232.841 342.154 230.355C364.361 227.869 550.592 320.702 550.592 320.702Z" fill="#4A75CB"/>
<path d="M540.306 337.698C540.306 337.698 557.806 297.128 592.778 294.647C629.303 292.051 650.371 336.929 650.371 336.929L540.306 337.698Z" fill="#4A75CB"/>
<path d="M766.106 336.444L251.817 340.039L252.333 413.741L766.621 410.147L766.106 336.444Z" fill="#88B3FF"/>
<path d="M959.967 335.09L766.122 336.445L766.637 410.148L960.482 408.793L959.967 335.09Z" fill="#3969B7"/>
<path d="M558.228 331.724C558.228 331.724 457.23 300.527 389.449 322.091C311.266 346.961 316.592 443.599 316.592 443.599L334.962 435.891L359.922 447.39C359.922 447.39 363.406 344.99 427.172 330.215C482.323 317.442 558.228 331.724 558.228 331.724Z" fill="#4A75CB"/>
<path d="M506.59 338.259L469.083 338.521L472.861 879.022L510.368 878.76L506.59 338.259Z" fill="#AFCDFB"/>
<path d="M779.237 834.531C778.342 835.64 777.425 836.738 776.478 837.826C776.155 838.185 775.832 838.555 775.498 838.882C774.759 839.706 774.019 840.509 773.258 841.302C755.297 859.856 730.793 870.653 704.98 871.387C679.167 872.12 654.09 862.733 635.104 845.228C616.118 827.724 604.728 803.49 603.367 777.703C602.005 751.915 610.78 726.617 627.817 707.21C628.775 706.154 629.744 705.097 630.745 704.041C631.745 702.984 632.683 702.043 633.685 701.091C641.127 693.949 649.64 688.014 658.914 683.499C679.135 673.685 702.094 671.048 724.013 676.021C745.932 680.994 765.505 693.281 779.51 710.86C793.516 728.439 801.12 750.262 801.07 772.738C801.02 795.214 793.32 817.004 779.237 834.521L779.237 834.531Z" fill="#CDE0FB"/>
<path d="M703.54 863.436C679.899 863.557 657.159 854.372 640.235 837.866C623.31 821.359 613.559 798.857 613.089 775.22C612.619 751.584 621.467 728.711 637.722 711.545C653.977 694.378 676.333 684.296 699.96 683.477C723.587 682.658 746.588 691.168 763.992 707.168C781.397 723.167 791.808 745.372 792.975 768.985C794.143 792.597 785.974 815.721 770.233 833.36C754.492 850.998 732.443 861.736 708.85 863.252C707.066 863.369 705.303 863.424 703.54 863.436ZM702.538 688.537C700.879 688.549 699.22 688.561 697.552 688.719C675.41 690.182 654.732 700.298 639.987 716.882C625.241 733.465 617.612 755.184 618.748 777.346C619.885 799.507 629.694 820.332 646.058 835.321C662.422 850.31 684.026 858.258 706.202 857.449C728.378 856.641 749.346 847.139 764.574 830.999C779.803 814.858 788.069 793.374 787.588 771.188C787.107 749.002 777.916 727.897 762.002 712.432C746.088 696.967 724.728 688.384 702.538 688.537V688.537Z" fill="#AFCDFB"/>
<path d="M680.501 710.864L712.874 742.016L756.87 733.006L737.259 773.413L759.421 812.478L714.929 806.312L684.622 839.456L676.744 795.241L635.851 776.662L675.469 755.505L680.501 710.864Z" fill="#AFCDFB"/>
</g>
<path d="M670.592 373.404C670.592 373.404 576.913 487.493 542.453 460.001C507.993 432.51 601.032 282.648 601.032 282.648L670.592 373.404Z" fill="#FF9F0F"/>
<path d="M710.275 881.457C706.871 793.887 701.021 713.879 701.021 713.879C688.68 734.123 671.501 808.553 656.814 881.457H593.575C606.786 708.227 638.981 585.875 638.981 585.875H752.56C752.56 585.875 775.564 623.842 775.652 632.591C776.272 710.464 769.052 803.563 761.054 881.457H710.275Z" fill="#373F43"/>
<path d="M603.24 283.614C674.655 273.287 753.098 282.765 791.164 287.56C803.482 289.12 814.786 295.189 822.892 304.594C855.097 341.874 925.8 443.948 842.594 546.804C831.945 540.893 816.812 531.412 806.534 520.445C815.736 494.493 816.497 461.342 797.202 420.664C796.542 423.89 795.715 427.08 794.724 430.22C768.132 514.45 766.713 584.565 766.766 600.721C766.773 601.792 766.458 602.84 765.861 603.729C765.265 604.619 764.415 605.308 763.421 605.708C728.424 619.73 661.058 611.37 638.443 608.015C636.456 607.71 634.67 606.631 633.477 605.014C632.283 603.396 631.778 601.372 632.073 599.383C640.028 541.75 613.018 457.467 591.54 402.152C583.089 380.291 598.795 289.744 603.24 283.614Z" fill="#FF9F0F"/>
<path d="M717.065 199.846L726.925 281.35C727.146 283.141 726.725 284.952 725.736 286.46C724.747 287.969 723.254 289.078 721.524 289.589C710.822 292.718 687.903 297.456 666.977 288.839C665.053 288.033 663.474 286.578 662.513 284.727C661.553 282.876 661.272 280.747 661.721 278.71L674.186 221.345L717.065 199.846Z" fill="url(#paint0_linear_1_97619)"/>
<path d="M653.14 141.919C652.525 143.044 639.338 226.729 639.338 226.729L687.282 233.248L711.57 155.788C711.57 155.788 663.443 123.116 653.14 141.919Z" fill="url(#paint1_linear_1_97619)"/>
<path d="M693.81 163.496C694.482 164.318 694.957 165.284 695.198 166.318C695.439 167.352 695.44 168.428 695.2 169.463L685.748 210.636C685.605 211.255 685.378 211.85 685.072 212.406C683.359 215.496 677.109 224.892 667.649 217.945C659.59 212.02 652.098 206.687 645.579 205.604C644.673 205.46 643.747 205.497 642.855 205.713C641.963 205.929 641.123 206.32 640.383 206.863C639.643 207.405 639.018 208.089 638.544 208.875C638.069 209.66 637.755 210.532 637.62 211.44C636.413 219.296 634.293 235.197 634.396 249.591C634.416 251.331 635.091 253 636.287 254.265C637.483 255.529 639.111 256.297 640.848 256.414C650.343 257.083 668.926 257.83 684.304 255.076C685.542 254.855 686.696 254.301 687.644 253.475C688.592 252.648 689.298 251.58 689.687 250.384C693.194 239.653 703.135 209.61 707.265 201.545C711.091 194.067 722.225 192.792 727.367 192.616C728.33 192.584 729.277 192.353 730.146 191.937C731.016 191.522 731.79 190.931 732.421 190.202C736.261 185.775 742.259 175.904 730.694 166.26C727.82 163.864 727.48 159.536 729.816 156.609C734.006 151.368 737.648 142.906 728.669 134.041C719.581 125.069 709.304 127.341 702.792 130.378C699.907 131.722 696.347 131.139 694.298 128.718C693.381 127.656 692.022 126.909 690.012 127.143C686.222 127.578 682.831 125.087 682.368 121.296C681.579 114.802 678.096 107.165 666.605 104.978C645.53 100.968 635.082 122.079 635.5 136.897C635.918 151.715 659.014 154.762 672.108 152.263C681.699 150.458 690.044 158.892 693.81 163.496Z" fill="#263238"/>
<path d="M703.609 216.748C703.609 216.748 703.991 190.913 714.446 188.436C724.9 185.958 736.207 193.511 727.303 209.008C716.229 228.296 703.609 216.748 703.609 216.748Z" fill="url(#paint2_linear_1_97619)"/>
<path d="M800.741 414.379C814.844 375.775 809.726 329.162 809.673 328.695L805.78 329.141C805.833 329.598 810.841 375.319 797.057 413.035L800.741 414.379Z" fill="url(#paint3_linear_1_97619)"/>
<path d="M806.542 520.445C816.805 531.416 831.953 540.894 842.602 546.804C826.697 566.46 805.183 586.141 776.697 605.408L773.25 613.14C771.799 616.387 769.477 619.168 766.54 621.174C763.604 623.181 760.169 624.333 756.617 624.504C716.806 626.401 705.792 617.957 742.439 592.398C742.425 592.394 789.293 569.072 806.542 520.445Z" fill="url(#paint4_linear_1_97619)"/>
<path d="M513.848 347.684C513.848 347.684 564.081 399.906 575.686 418.851C587.29 437.795 574.376 472.29 548.01 464.285C521.644 456.28 490.954 365.666 490.954 365.666L513.848 347.684Z" fill="url(#paint5_linear_1_97619)"/>
<path d="M597.934 273.527C597.934 273.527 553.787 389.962 539.84 414.17C523.652 442.284 476.37 424.369 478.724 400.841C481.077 377.314 536.322 280.053 536.322 280.053L597.934 273.527Z" fill="#6084CB"/>
<path d="M538.287 188.708L263.911 93.5781L266.792 351.016L545.783 288.764L538.287 188.708Z" fill="#6D90D5"/>
<path d="M263.652 355.345C248.764 355.345 236.695 296.112 236.695 223.045C236.695 149.977 248.764 90.7441 263.652 90.7441C278.54 90.7441 290.609 149.977 290.609 223.045C290.609 296.112 278.54 355.345 263.652 355.345Z" fill="#7D97F4"/>
<path d="M261.608 346.297C264.043 343.819 269.352 334.264 273.903 309.54C278.298 285.655 280.723 254.685 280.723 222.299C280.723 189.913 278.298 158.95 273.903 135.054C269.352 110.337 264.043 100.778 261.608 98.3008C259.17 100.778 253.865 110.334 249.314 135.054C244.914 158.943 242.494 189.909 242.494 222.299C242.494 254.688 244.914 285.648 249.314 309.54C253.865 334.26 259.17 343.819 261.608 346.297Z" fill="#8DB9F9"/>
<path d="M582.54 183.174C569.633 181.677 551.124 181.135 531.111 185.718C537.704 220.16 536.71 256.057 529.086 293.228H585.517C589.873 293.23 594.087 291.678 597.401 288.851C600.715 286.024 602.911 282.107 603.594 277.805C606.425 259.985 609.844 230.027 606.178 205.987C605.284 200.118 602.486 194.707 598.215 190.585C593.944 186.463 588.436 183.859 582.54 183.174Z" fill="#6084CB"/>
<path d="M548.665 210.207H592.641C593.48 210.207 594.304 209.98 595.025 209.551C595.746 209.122 596.338 208.507 596.739 207.77C597.14 207.033 597.335 206.201 597.303 205.363C597.272 204.524 597.014 203.71 596.559 203.005C596.301 202.607 595.896 202.328 595.433 202.229C594.969 202.129 594.485 202.218 594.087 202.476C593.689 202.734 593.41 203.139 593.31 203.602C593.211 204.066 593.3 204.55 593.558 204.948C593.665 205.113 593.726 205.303 593.733 205.5C593.741 205.696 593.696 205.891 593.602 206.064C593.508 206.236 593.369 206.38 593.2 206.48C593.031 206.581 592.838 206.633 592.641 206.633H548.665C548.375 206.633 548.097 206.517 547.892 206.312C547.687 206.107 547.571 205.829 547.571 205.539V202.411C547.572 202.121 547.688 201.843 547.893 201.638C548.098 201.433 548.375 201.318 548.665 201.317H592.949C593.423 201.317 593.877 201.129 594.212 200.794C594.547 200.459 594.735 200.005 594.735 199.532C594.735 199.058 594.547 198.604 594.212 198.269C593.877 197.934 593.423 197.746 592.949 197.746H548.647C547.41 197.747 546.225 198.239 545.35 199.113C544.475 199.988 543.984 201.174 543.983 202.411V205.539C543.983 206.153 544.105 206.761 544.34 207.328C544.576 207.895 544.921 208.41 545.356 208.844C545.791 209.277 546.307 209.621 546.875 209.855C547.443 210.089 548.051 210.209 548.665 210.207Z" fill="#BDD0FB"/>
<path d="M552.584 229.684H596.561C597.399 229.684 598.223 229.458 598.944 229.029C599.666 228.601 600.258 227.986 600.659 227.249C601.06 226.512 601.255 225.681 601.223 224.842C601.191 224.004 600.934 223.19 600.478 222.485C600.221 222.087 599.816 221.808 599.353 221.708C598.89 221.609 598.406 221.697 598.008 221.954C597.61 222.212 597.331 222.616 597.231 223.08C597.131 223.543 597.22 224.027 597.477 224.425C597.584 224.589 597.645 224.78 597.653 224.976C597.66 225.173 597.615 225.368 597.521 225.54C597.427 225.713 597.288 225.857 597.119 225.957C596.95 226.057 596.757 226.11 596.561 226.109H552.584C552.295 226.109 552.017 225.995 551.812 225.79C551.607 225.586 551.492 225.309 551.491 225.019V221.891C551.491 221.6 551.606 221.322 551.811 221.116C552.016 220.91 552.294 220.794 552.584 220.794H596.886C597.36 220.794 597.814 220.605 598.149 220.271C598.483 219.936 598.672 219.482 598.672 219.008C598.672 218.535 598.483 218.08 598.149 217.746C597.814 217.411 597.36 217.223 596.886 217.223H552.584C551.347 217.224 550.16 217.716 549.286 218.591C548.411 219.466 547.92 220.653 547.92 221.891V225.019C547.922 226.256 548.414 227.441 549.288 228.315C550.162 229.19 551.348 229.682 552.584 229.684Z" fill="#BDD0FB"/>
<path d="M498.416 182.396C498.859 182.429 499.299 182.294 499.647 182.017C499.996 181.74 500.227 181.343 500.295 180.903C500.364 180.464 500.264 180.014 500.016 179.645C499.768 179.276 499.39 179.013 498.957 178.91L291.151 112.779C290.927 112.708 290.692 112.682 290.458 112.702C290.224 112.722 289.997 112.787 289.788 112.895C289.58 113.003 289.395 113.151 289.244 113.33C289.092 113.509 288.978 113.717 288.907 113.94C288.836 114.164 288.809 114.399 288.829 114.633C288.849 114.867 288.915 115.094 289.023 115.302C289.13 115.511 289.278 115.696 289.457 115.847C289.637 115.998 289.844 116.113 290.068 116.184L497.874 182.315C498.049 182.369 498.232 182.397 498.416 182.396Z" fill="#BDD0FB"/>
<path d="M526.521 193.897C526.947 193.921 527.368 193.79 527.706 193.528C528.044 193.266 528.275 192.89 528.357 192.471C528.44 192.052 528.368 191.617 528.154 191.246C527.941 190.876 527.601 190.596 527.197 190.457L516.502 186.086C516.063 185.907 515.571 185.909 515.134 186.092C514.697 186.276 514.351 186.626 514.171 187.064C513.992 187.503 513.994 187.995 514.178 188.432C514.361 188.869 514.711 189.216 515.15 189.395L525.845 193.766C526.059 193.854 526.289 193.898 526.521 193.897Z" fill="#BDD0FB"/>
<path d="M548.664 252.492H592.641C593.48 252.493 594.303 252.267 595.024 251.838C595.746 251.41 596.338 250.795 596.739 250.058C597.14 249.321 597.335 248.489 597.303 247.651C597.271 246.812 597.014 245.998 596.558 245.294C596.431 245.097 596.266 244.927 596.073 244.793C595.88 244.66 595.663 244.566 595.433 244.517C595.204 244.468 594.967 244.464 594.736 244.506C594.505 244.548 594.285 244.636 594.088 244.763C593.891 244.89 593.721 245.055 593.588 245.248C593.454 245.441 593.36 245.659 593.311 245.888C593.262 246.118 593.258 246.354 593.3 246.585C593.343 246.816 593.43 247.036 593.557 247.233C593.664 247.398 593.725 247.589 593.732 247.786C593.74 247.982 593.694 248.177 593.6 248.35C593.507 248.522 593.368 248.667 593.199 248.767C593.03 248.868 592.837 248.921 592.641 248.921H548.664C548.375 248.92 548.097 248.805 547.892 248.6C547.687 248.395 547.572 248.118 547.571 247.828V244.699C547.571 244.409 547.686 244.131 547.891 243.926C548.096 243.721 548.374 243.606 548.664 243.606H592.948C593.422 243.606 593.877 243.417 594.212 243.082C594.547 242.747 594.736 242.292 594.736 241.818C594.736 241.344 594.547 240.89 594.212 240.555C593.877 240.22 593.422 240.031 592.948 240.031H548.647C547.409 240.033 546.224 240.526 545.349 241.401C544.475 242.276 543.983 243.462 543.982 244.699V247.828C543.983 248.442 544.104 249.049 544.34 249.616C544.575 250.183 544.921 250.698 545.356 251.131C545.79 251.565 546.307 251.908 546.874 252.141C547.442 252.375 548.05 252.494 548.664 252.492Z" fill="#BDD0FB"/>
<path d="M544.546 277.811H588.522C589.361 277.81 590.185 277.584 590.906 277.155C591.627 276.726 592.219 276.11 592.62 275.373C593.021 274.636 593.216 273.805 593.184 272.966C593.152 272.128 592.895 271.313 592.44 270.609C592.183 270.211 591.778 269.931 591.315 269.832C590.851 269.732 590.368 269.821 589.97 270.078C589.572 270.335 589.292 270.74 589.193 271.203C589.093 271.666 589.182 272.15 589.439 272.548C589.545 272.713 589.606 272.904 589.613 273.101C589.621 273.297 589.575 273.492 589.481 273.665C589.388 273.838 589.249 273.983 589.08 274.084C588.912 274.185 588.719 274.239 588.522 274.24H544.546C544.256 274.24 543.978 274.125 543.773 273.919C543.567 273.714 543.452 273.436 543.452 273.146V270.014C543.452 269.871 543.481 269.729 543.536 269.596C543.591 269.464 543.671 269.343 543.773 269.242C543.874 269.141 543.995 269.061 544.128 269.006C544.26 268.951 544.402 268.924 544.546 268.924H588.848C589.322 268.924 589.776 268.736 590.111 268.401C590.447 268.065 590.635 267.611 590.635 267.137C590.635 266.663 590.447 266.208 590.111 265.873C589.776 265.538 589.322 265.35 588.848 265.35H544.546C543.309 265.351 542.123 265.843 541.248 266.718C540.373 267.592 539.881 268.777 539.878 270.014V273.146C539.88 274.383 540.372 275.569 541.247 276.444C542.122 277.318 543.309 277.81 544.546 277.811Z" fill="#BDD0FB"/>
<path d="M505.269 415.466C507.374 415.463 509.473 415.235 511.53 414.786C515.998 413.835 520.179 411.841 523.729 408.965C527.279 406.09 530.099 402.415 531.957 398.241L567.093 320.183C567.189 319.969 567.242 319.739 567.249 319.504C567.256 319.269 567.217 319.036 567.134 318.817C567.05 318.597 566.925 318.396 566.764 318.226C566.603 318.055 566.41 317.917 566.196 317.821C565.982 317.725 565.751 317.672 565.516 317.665C565.282 317.658 565.048 317.697 564.829 317.78C564.609 317.864 564.409 317.989 564.238 318.15C564.067 318.311 563.93 318.504 563.833 318.718L528.698 396.772C527.066 400.434 524.591 403.657 521.475 406.179C518.359 408.701 514.69 410.45 510.769 411.282C506.936 412.143 502.955 412.084 499.149 411.112C495.344 410.139 491.822 408.281 488.873 405.687C488.544 405.4 488.214 405.103 487.885 404.802C487.536 404.483 487.073 404.315 486.6 404.336C486.127 404.358 485.681 404.566 485.362 404.916C485.042 405.265 484.875 405.728 484.896 406.201C484.917 406.674 485.125 407.119 485.475 407.439C485.829 407.761 486.183 408.072 486.537 408.377C491.71 412.941 498.37 415.462 505.269 415.466Z" fill="#BDD0FB"/>
<path d="M570.651 309.697C570.996 309.696 571.334 309.595 571.623 309.407C571.913 309.218 572.142 308.95 572.283 308.635L576.2 299.926C576.297 299.712 576.35 299.481 576.357 299.246C576.364 299.012 576.324 298.778 576.241 298.559C576.158 298.339 576.032 298.139 575.871 297.968C575.71 297.797 575.517 297.66 575.303 297.563C575.089 297.467 574.858 297.414 574.624 297.407C574.389 297.4 574.156 297.439 573.936 297.523C573.717 297.606 573.516 297.732 573.345 297.893C573.174 298.053 573.037 298.246 572.941 298.46L569.023 307.17C568.902 307.442 568.85 307.74 568.873 308.037C568.896 308.334 568.993 308.621 569.155 308.871C569.316 309.121 569.538 309.327 569.799 309.47C570.06 309.613 570.353 309.689 570.651 309.69V309.697Z" fill="#BDD0FB"/>
<path d="M532.867 317.665C532.867 317.665 518.555 305.516 507.386 317.665C496.217 329.815 493.991 351.018 496.263 352.051C498.535 353.084 567.685 335.916 532.867 317.665Z" fill="url(#paint6_linear_1_97619)"/>
<defs>
<linearGradient id="paint0_linear_1_97619" x1="729.222" y1="164.053" x2="685.547" y2="298.691" gradientUnits="userSpaceOnUse">
<stop stop-color="#FEBBBA"/>
<stop offset="1" stop-color="#FF928E"/>
</linearGradient>
<linearGradient id="paint1_linear_1_97619" x1="65745.1" y1="68957.6" x2="76965" y2="106199" gradientUnits="userSpaceOnUse">
<stop stop-color="#FEBBBA"/>
<stop offset="1" stop-color="#FF928E"/>
</linearGradient>
<linearGradient id="paint2_linear_1_97619" x1="-143311" y1="180901" x2="-153639" y2="187882" gradientUnits="userSpaceOnUse">
<stop stop-color="#FEBBBA"/>
<stop offset="1" stop-color="#FF928E"/>
</linearGradient>
<linearGradient id="paint3_linear_1_97619" x1="-24244.6" y1="-38806.7" x2="-7436.99" y2="-32369" gradientUnits="userSpaceOnUse">
<stop stop-color="#FF928E"/>
<stop offset="1" stop-color="#FE7062"/>
</linearGradient>
<linearGradient id="paint4_linear_1_97619" x1="-93441.2" y1="256308" x2="-135858" y2="256308" gradientUnits="userSpaceOnUse">
<stop stop-color="#FEBBBA"/>
<stop offset="1" stop-color="#FF928E"/>
</linearGradient>
<linearGradient id="paint5_linear_1_97619" x1="430987" y1="406984" x2="419945" y2="423135" gradientUnits="userSpaceOnUse">
<stop stop-color="#FEBBBA"/>
<stop offset="1" stop-color="#FF928E"/>
</linearGradient>
<linearGradient id="paint6_linear_1_97619" x1="-75762" y1="70920" x2="-82055.6" y2="70920" gradientUnits="userSpaceOnUse">
<stop stop-color="#FEBBBA"/>
<stop offset="1" stop-color="#FF928E"/>
</linearGradient>
</defs>
</svg>
