<svg width="98" height="85" viewBox="0 0 98 85" fill="none" xmlns="http://www.w3.org/2000/svg">
<path fill-rule="evenodd" clip-rule="evenodd" d="M60.8486 44.8446C58.753 44.7155 56.695 44.397 54.7143 43.9038C43.9687 41.2226 35.5317 33.3289 36.3851 21.8017C36.901 15.4821 40.7664 12.2547 45.3689 11.7247C49.9398 11.1988 55.195 13.2443 58.64 17.5656C64.5391 24.9669 64.9191 35.4054 60.8486 44.8446ZM62.5488 46.746C61.9404 48.0535 61.2448 49.339 60.4707 50.5955C54.7006 59.9473 44.5296 67.5982 30.9001 69.5468C26.5483 70.1697 22.2148 70.2938 17.938 69.8055C13.6853 69.3202 9.50486 68.237 5.39591 66.728C5.04899 66.611 4.86151 66.2343 4.97894 65.8875C5.0964 65.5402 5.47379 65.3541 5.81954 65.4713C9.88005 66.7226 13.9943 67.4643 18.1355 67.8132C22.2604 68.1606 26.4183 68.1114 30.5985 67.4867C43.4922 65.5578 53.0819 58.2691 58.5019 49.3869C59.0539 48.4823 59.5615 47.5609 60.0222 46.6267C58.0604 46.4704 56.132 46.1585 54.269 45.7012C42.5571 42.8254 33.4497 34.2144 34.2813 21.6537C34.734 13.9493 39.4761 9.95933 45.0727 9.25907C50.3924 8.5934 56.5448 11.0063 60.5425 16.0544C66.761 23.9098 67.421 34.8909 63.3498 44.9158C70.8381 44.8599 78.5811 42.44 84.746 37.2446C89.5091 33.2308 92.3921 28.138 93.8718 22.8611C95.0024 18.836 95.1794 14.7109 94.945 10.7996C94.8363 8.98733 94.7327 7.23195 94.408 5.53415C94.3694 5.403 94.4437 5.26528 94.5745 5.22701C94.7065 5.18844 94.8442 5.26392 94.8828 5.39506C95.5451 7.05138 96.1399 8.77786 96.457 10.6252C97.1524 14.6931 96.8114 19.0998 95.6807 23.3552C94.1801 28.9973 91.0227 34.3972 85.9469 38.6703C79.2124 44.3411 70.7006 46.86 62.5488 46.746Z" fill="#040606" fill-opacity="0.8"/>
<path fill-rule="evenodd" clip-rule="evenodd" d="M5.33321 66.2707C7.22417 67.5482 10.0809 69.4648 10.3898 69.6677L15.7751 73.4025L24.201 79.9604C24.3983 80.0978 24.446 80.3695 24.3072 80.5665C24.1695 80.7631 23.8978 80.8105 23.7017 80.6723L14.6285 75.1357L9.04645 71.7328C8.66986 71.4915 4.53306 68.8163 2.89118 67.7083C1.90022 67.0395 1.66615 66.2087 1.66637 66.1816C1.66766 65.7676 1.87996 65.1523 2.64539 64.7536C3.63492 64.2389 6.53838 63.772 6.83309 63.7058L20.9134 60.4443C25.7605 59.371 27.2575 58.6471 27.6005 59.8248C27.6847 60.0636 27.6119 60.3079 27.1185 60.7907C26.9694 60.9377 26.7201 61.0017 26.4655 61.1015C24.8193 61.7457 21.8177 62.2717 21.4252 62.39L7.39922 66.1121C7.27348 66.1426 6.25482 66.1565 5.33321 66.2707Z" fill="#040606" fill-opacity="0.8"/>
</svg>
